<?xml version="1.0" encoding="UTF-8" standalone="no"?>
<!DOCTYPE svg PUBLIC "-//W3C//DTD SVG 1.1//EN"
 "http://www.w3.org/Graphics/SVG/1.1/DTD/svg11.dtd">
<!-- Generated by graphviz version 2.49.1 (20211004.0028)
 -->
<!-- Title: snakemake_dag Pages: 1 -->
<svg width="3305pt" height="260pt"
 viewBox="0.00 0.00 3305.00 260.00" xmlns="http://www.w3.org/2000/svg" xmlns:xlink="http://www.w3.org/1999/xlink">
<g id="graph0" class="graph" transform="scale(1 1) rotate(0) translate(4 256)">
<title>snakemake_dag</title>
<polygon fill="white" stroke="transparent" points="-4,4 -4,-256 3301,-256 3301,4 -4,4"/>
<!-- 0 -->
<g id="node1" class="node">
<title>0</title>
<path fill="none" stroke="#56a2d8" stroke-width="2" d="M2187.5,-36C2187.5,-36 2157.5,-36 2157.5,-36 2151.5,-36 2145.5,-30 2145.5,-24 2145.5,-24 2145.5,-12 2145.5,-12 2145.5,-6 2151.5,0 2157.5,0 2157.5,0 2187.5,0 2187.5,0 2193.5,0 2199.5,-6 2199.5,-12 2199.5,-12 2199.5,-24 2199.5,-24 2199.5,-30 2193.5,-36 2187.5,-36"/>
<text text-anchor="middle" x="2172.5" y="-15.5" font-family="sans" font-size="10.00">all</text>
</g>
<!-- 1 -->
<g id="node2" class="node">
<title>1</title>
<path fill="none" stroke="#c6d856" stroke-width="2" stroke-dasharray="5,2" d="M763,-108C763,-108 670,-108 670,-108 664,-108 658,-102 658,-96 658,-96 658,-84 658,-84 658,-78 664,-72 670,-72 670,-72 763,-72 763,-72 769,-72 775,-78 775,-84 775,-84 775,-96 775,-96 775,-102 769,-108 763,-108"/>
<text text-anchor="middle" x="716.5" y="-87.5" font-family="sans" font-size="10.00">multiqc_before_pear</text>
</g>
<!-- 1&#45;&gt;0 -->
<g id="edge1" class="edge">
<title>1&#45;&gt;0</title>
<path fill="none" stroke="grey" stroke-width="2" d="M775.03,-85.83C839.91,-82.34 947.67,-76.61 1040.5,-72 1470.44,-50.66 1992.37,-27.08 2134.97,-20.68"/>
<polygon fill="grey" stroke="grey" stroke-width="2" points="2135.51,-24.16 2145.34,-20.22 2135.19,-17.17 2135.51,-24.16"/>
</g>
<!-- 2 -->
<g id="node3" class="node">
<title>2</title>
<path fill="none" stroke="#d8a456" stroke-width="2" stroke-dasharray="5,2" d="M133,-180C133,-180 12,-180 12,-180 6,-180 0,-174 0,-168 0,-168 0,-156 0,-156 0,-150 6,-144 12,-144 12,-144 133,-144 133,-144 139,-144 145,-150 145,-156 145,-156 145,-168 145,-168 145,-174 139,-180 133,-180"/>
<text text-anchor="middle" x="72.5" y="-165" font-family="sans" font-size="10.00">fastqc_before_pear</text>
<text text-anchor="middle" x="72.5" y="-154" font-family="sans" font-size="10.00">sample: LL607&#45;MPP3&#45;4_S6</text>
</g>
<!-- 2&#45;&gt;1 -->
<g id="edge21" class="edge">
<title>2&#45;&gt;1</title>
<path fill="none" stroke="grey" stroke-width="2" d="M145.3,-145.47C148.41,-144.95 151.48,-144.45 154.5,-144 331.29,-117.42 541.5,-101.81 647.73,-95.03"/>
<polygon fill="grey" stroke="grey" stroke-width="2" points="648.23,-98.51 657.99,-94.38 647.79,-91.52 648.23,-98.51"/>
</g>
<!-- 3 -->
<g id="node4" class="node">
<title>3</title>
<path fill="none" stroke="#d8a456" stroke-width="2" stroke-dasharray="5,2" d="M271.5,-180C271.5,-180 175.5,-180 175.5,-180 169.5,-180 163.5,-174 163.5,-168 163.5,-168 163.5,-156 163.5,-156 163.5,-150 169.5,-144 175.5,-144 175.5,-144 271.5,-144 271.5,-144 277.5,-144 283.5,-150 283.5,-156 283.5,-156 283.5,-168 283.5,-168 283.5,-174 277.5,-180 271.5,-180"/>
<text text-anchor="middle" x="223.5" y="-165" font-family="sans" font-size="10.00">fastqc_before_pear</text>
<text text-anchor="middle" x="223.5" y="-154" font-family="sans" font-size="10.00">sample: LL607&#45;LK_S7</text>
</g>
<!-- 3&#45;&gt;1 -->
<g id="edge22" class="edge">
<title>3&#45;&gt;1</title>
<path fill="none" stroke="grey" stroke-width="2" d="M283.62,-145.75C286.62,-145.13 289.59,-144.54 292.5,-144 416.79,-121 563.47,-105.14 647.67,-97.1"/>
<polygon fill="grey" stroke="grey" stroke-width="2" points="648.24,-100.56 657.87,-96.14 647.59,-93.59 648.24,-100.56"/>
</g>
<!-- 4 -->
<g id="node5" class="node">
<title>4</title>
<path fill="none" stroke="#d8a456" stroke-width="2" stroke-dasharray="5,2" d="M425,-180C425,-180 314,-180 314,-180 308,-180 302,-174 302,-168 302,-168 302,-156 302,-156 302,-150 308,-144 314,-144 314,-144 425,-144 425,-144 431,-144 437,-150 437,-156 437,-156 437,-168 437,-168 437,-174 431,-180 425,-180"/>
<text text-anchor="middle" x="369.5" y="-165" font-family="sans" font-size="10.00">fastqc_before_pear</text>
<text text-anchor="middle" x="369.5" y="-154" font-family="sans" font-size="10.00">sample: LL605&#45;MPP2_S1</text>
</g>
<!-- 4&#45;&gt;1 -->
<g id="edge23" class="edge">
<title>4&#45;&gt;1</title>
<path fill="none" stroke="grey" stroke-width="2" d="M437.09,-145.98C440.27,-145.31 443.42,-144.64 446.5,-144 514.96,-129.73 593.41,-114.45 648.04,-103.98"/>
<polygon fill="grey" stroke="grey" stroke-width="2" points="648.79,-107.4 657.96,-102.08 647.48,-100.52 648.79,-107.4"/>
</g>
<!-- 5 -->
<g id="node6" class="node">
<title>5</title>
<path fill="none" stroke="#d8a456" stroke-width="2" stroke-dasharray="5,2" d="M553.5,-180C553.5,-180 467.5,-180 467.5,-180 461.5,-180 455.5,-174 455.5,-168 455.5,-168 455.5,-156 455.5,-156 455.5,-150 461.5,-144 467.5,-144 467.5,-144 553.5,-144 553.5,-144 559.5,-144 565.5,-150 565.5,-156 565.5,-156 565.5,-168 565.5,-168 565.5,-174 559.5,-180 553.5,-180"/>
<text text-anchor="middle" x="510.5" y="-165" font-family="sans" font-size="10.00">fastqc_before_pear</text>
<text text-anchor="middle" x="510.5" y="-154" font-family="sans" font-size="10.00">sample: 1_S1</text>
</g>
<!-- 5&#45;&gt;1 -->
<g id="edge24" class="edge">
<title>5&#45;&gt;1</title>
<path fill="none" stroke="grey" stroke-width="2" d="M560.63,-143.97C589.54,-134.14 626.07,-121.73 656.5,-111.39"/>
<polygon fill="grey" stroke="grey" stroke-width="2" points="657.8,-114.64 666.15,-108.11 655.55,-108.01 657.8,-114.64"/>
</g>
<!-- 6 -->
<g id="node7" class="node">
<title>6</title>
<path fill="none" stroke="#d8a456" stroke-width="2" stroke-dasharray="5,2" d="M691.5,-180C691.5,-180 595.5,-180 595.5,-180 589.5,-180 583.5,-174 583.5,-168 583.5,-168 583.5,-156 583.5,-156 583.5,-150 589.5,-144 595.5,-144 595.5,-144 691.5,-144 691.5,-144 697.5,-144 703.5,-150 703.5,-156 703.5,-156 703.5,-168 703.5,-168 703.5,-174 697.5,-180 691.5,-180"/>
<text text-anchor="middle" x="643.5" y="-165" font-family="sans" font-size="10.00">fastqc_before_pear</text>
<text text-anchor="middle" x="643.5" y="-154" font-family="sans" font-size="10.00">sample: LL605&#45;LK_S3</text>
</g>
<!-- 6&#45;&gt;1 -->
<g id="edge25" class="edge">
<title>6&#45;&gt;1</title>
<path fill="none" stroke="grey" stroke-width="2" d="M661.54,-143.7C670.56,-135.05 681.62,-124.45 691.44,-115.03"/>
<polygon fill="grey" stroke="grey" stroke-width="2" points="693.87,-117.55 698.66,-108.1 689.02,-112.5 693.87,-117.55"/>
</g>
<!-- 7 -->
<g id="node8" class="node">
<title>7</title>
<path fill="none" stroke="#d8a456" stroke-width="2" stroke-dasharray="5,2" d="M845,-180C845,-180 734,-180 734,-180 728,-180 722,-174 722,-168 722,-168 722,-156 722,-156 722,-150 728,-144 734,-144 734,-144 845,-144 845,-144 851,-144 857,-150 857,-156 857,-156 857,-168 857,-168 857,-174 851,-180 845,-180"/>
<text text-anchor="middle" x="789.5" y="-165" font-family="sans" font-size="10.00">fastqc_before_pear</text>
<text text-anchor="middle" x="789.5" y="-154" font-family="sans" font-size="10.00">sample: LL607&#45;MPP2_S5</text>
</g>
<!-- 7&#45;&gt;1 -->
<g id="edge26" class="edge">
<title>7&#45;&gt;1</title>
<path fill="none" stroke="grey" stroke-width="2" d="M771.46,-143.7C762.44,-135.05 751.38,-124.45 741.56,-115.03"/>
<polygon fill="grey" stroke="grey" stroke-width="2" points="743.98,-112.5 734.34,-108.1 739.13,-117.55 743.98,-112.5"/>
</g>
<!-- 8 -->
<g id="node9" class="node">
<title>8</title>
<path fill="none" stroke="#d8a456" stroke-width="2" stroke-dasharray="5,2" d="M991.5,-180C991.5,-180 887.5,-180 887.5,-180 881.5,-180 875.5,-174 875.5,-168 875.5,-168 875.5,-156 875.5,-156 875.5,-150 881.5,-144 887.5,-144 887.5,-144 991.5,-144 991.5,-144 997.5,-144 1003.5,-150 1003.5,-156 1003.5,-156 1003.5,-168 1003.5,-168 1003.5,-174 997.5,-180 991.5,-180"/>
<text text-anchor="middle" x="939.5" y="-165" font-family="sans" font-size="10.00">fastqc_before_pear</text>
<text text-anchor="middle" x="939.5" y="-154" font-family="sans" font-size="10.00">sample: LL607&#45;HSC_S8</text>
</g>
<!-- 8&#45;&gt;1 -->
<g id="edge27" class="edge">
<title>8&#45;&gt;1</title>
<path fill="none" stroke="grey" stroke-width="2" d="M885.23,-143.97C853.67,-134.06 813.71,-121.51 780.6,-111.12"/>
<polygon fill="grey" stroke="grey" stroke-width="2" points="781.6,-107.77 771.01,-108.11 779.5,-114.45 781.6,-107.77"/>
</g>
<!-- 9 -->
<g id="node10" class="node">
<title>9</title>
<path fill="none" stroke="#d8a456" stroke-width="2" stroke-dasharray="5,2" d="M1137.5,-180C1137.5,-180 1033.5,-180 1033.5,-180 1027.5,-180 1021.5,-174 1021.5,-168 1021.5,-168 1021.5,-156 1021.5,-156 1021.5,-150 1027.5,-144 1033.5,-144 1033.5,-144 1137.5,-144 1137.5,-144 1143.5,-144 1149.5,-150 1149.5,-156 1149.5,-156 1149.5,-168 1149.5,-168 1149.5,-174 1143.5,-180 1137.5,-180"/>
<text text-anchor="middle" x="1085.5" y="-165" font-family="sans" font-size="10.00">fastqc_before_pear</text>
<text text-anchor="middle" x="1085.5" y="-154" font-family="sans" font-size="10.00">sample: LL605&#45;HSC_S4</text>
</g>
<!-- 9&#45;&gt;1 -->
<g id="edge28" class="edge">
<title>9&#45;&gt;1</title>
<path fill="none" stroke="grey" stroke-width="2" d="M1021.45,-145.89C1018.43,-145.24 1015.43,-144.6 1012.5,-144 934.92,-128.03 845.33,-112.37 785.21,-102.27"/>
<polygon fill="grey" stroke="grey" stroke-width="2" points="785.52,-98.77 775.08,-100.57 784.36,-105.68 785.52,-98.77"/>
</g>
<!-- 10 -->
<g id="node11" class="node">
<title>10</title>
<path fill="none" stroke="#d8a456" stroke-width="2" stroke-dasharray="5,2" d="M1301,-180C1301,-180 1180,-180 1180,-180 1174,-180 1168,-174 1168,-168 1168,-168 1168,-156 1168,-156 1168,-150 1174,-144 1180,-144 1180,-144 1301,-144 1301,-144 1307,-144 1313,-150 1313,-156 1313,-156 1313,-168 1313,-168 1313,-174 1307,-180 1301,-180"/>
<text text-anchor="middle" x="1240.5" y="-165" font-family="sans" font-size="10.00">fastqc_before_pear</text>
<text text-anchor="middle" x="1240.5" y="-154" font-family="sans" font-size="10.00">sample: LL605&#45;MPP3&#45;4_S2</text>
</g>
<!-- 10&#45;&gt;1 -->
<g id="edge29" class="edge">
<title>10&#45;&gt;1</title>
<path fill="none" stroke="grey" stroke-width="2" d="M1167.68,-145.57C1164.58,-145.02 1161.51,-144.49 1158.5,-144 1027.17,-122.55 872.55,-105.98 785.38,-97.43"/>
<polygon fill="grey" stroke="grey" stroke-width="2" points="785.64,-93.94 775.35,-96.45 784.96,-100.9 785.64,-93.94"/>
</g>
<!-- 11 -->
<g id="node12" class="node">
<title>11</title>
<path fill="none" stroke="#56d87b" stroke-width="2" stroke-dasharray="5,2" d="M2296.5,-108C2296.5,-108 2212.5,-108 2212.5,-108 2206.5,-108 2200.5,-102 2200.5,-96 2200.5,-96 2200.5,-84 2200.5,-84 2200.5,-78 2206.5,-72 2212.5,-72 2212.5,-72 2296.5,-72 2296.5,-72 2302.5,-72 2308.5,-78 2308.5,-84 2308.5,-84 2308.5,-96 2308.5,-96 2308.5,-102 2302.5,-108 2296.5,-108"/>
<text text-anchor="middle" x="2254.5" y="-87.5" font-family="sans" font-size="10.00">multiqc_after_pear</text>
</g>
<!-- 11&#45;&gt;0 -->
<g id="edge2" class="edge">
<title>11&#45;&gt;0</title>
<path fill="none" stroke="grey" stroke-width="2" d="M2234.23,-71.7C2224,-62.97 2211.44,-52.24 2200.32,-42.75"/>
<polygon fill="grey" stroke="grey" stroke-width="2" points="2202.41,-39.94 2192.54,-36.1 2197.87,-45.26 2202.41,-39.94"/>
</g>
<!-- 12 -->
<g id="node13" class="node">
<title>12</title>
<path fill="none" stroke="#78d856" stroke-width="2" stroke-dasharray="5,2" d="M1497,-180C1497,-180 1420,-180 1420,-180 1414,-180 1408,-174 1408,-168 1408,-168 1408,-156 1408,-156 1408,-150 1414,-144 1420,-144 1420,-144 1497,-144 1497,-144 1503,-144 1509,-150 1509,-156 1509,-156 1509,-168 1509,-168 1509,-174 1503,-180 1497,-180"/>
<text text-anchor="middle" x="1458.5" y="-159.5" font-family="sans" font-size="10.00">fastqc_after_pear</text>
</g>
<!-- 12&#45;&gt;0 -->
<g id="edge3" class="edge">
<title>12&#45;&gt;0</title>
<path fill="none" stroke="grey" stroke-width="2" d="M1462.25,-143.88C1467.81,-123.02 1480.4,-88.52 1505.5,-72 1558.23,-37.29 2002.28,-23.32 2135.11,-19.89"/>
<polygon fill="grey" stroke="grey" stroke-width="2" points="2135.3,-23.38 2145.2,-19.63 2135.12,-16.38 2135.3,-23.38"/>
</g>
<!-- 12&#45;&gt;11 -->
<g id="edge30" class="edge">
<title>12&#45;&gt;11</title>
<path fill="none" stroke="grey" stroke-width="2" d="M1509.18,-145.61C1511.98,-145 1514.77,-144.46 1517.5,-144 1809.55,-94.77 1892.76,-153.35 2189.98,-107.83"/>
<polygon fill="grey" stroke="grey" stroke-width="2" points="2190.85,-111.24 2200.2,-106.24 2189.78,-104.32 2190.85,-111.24"/>
</g>
<!-- 13 -->
<g id="node14" class="node">
<title>13</title>
<path fill="none" stroke="#d85656" stroke-width="2" stroke-dasharray="5,2" d="M1442,-252C1442,-252 1321,-252 1321,-252 1315,-252 1309,-246 1309,-240 1309,-240 1309,-228 1309,-228 1309,-222 1315,-216 1321,-216 1321,-216 1442,-216 1442,-216 1448,-216 1454,-222 1454,-228 1454,-228 1454,-240 1454,-240 1454,-246 1448,-252 1442,-252"/>
<text text-anchor="middle" x="1381.5" y="-237" font-family="sans" font-size="10.00">pear</text>
<text text-anchor="middle" x="1381.5" y="-226" font-family="sans" font-size="10.00">sample: LL607&#45;MPP3&#45;4_S6</text>
</g>
<!-- 13&#45;&gt;12 -->
<g id="edge39" class="edge">
<title>13&#45;&gt;12</title>
<path fill="none" stroke="grey" stroke-width="2" d="M1400.53,-215.7C1410.04,-207.05 1421.71,-196.45 1432.07,-187.03"/>
<polygon fill="grey" stroke="grey" stroke-width="2" points="1434.64,-189.42 1439.69,-180.1 1429.93,-184.24 1434.64,-189.42"/>
</g>
<!-- 30 -->
<g id="node31" class="node">
<title>30</title>
<path fill="none" stroke="#56d8c9" stroke-width="2" d="M1219,-108C1219,-108 1062,-108 1062,-108 1056,-108 1050,-102 1050,-96 1050,-96 1050,-84 1050,-84 1050,-78 1056,-72 1062,-72 1062,-72 1219,-72 1219,-72 1225,-72 1231,-78 1231,-84 1231,-84 1231,-96 1231,-96 1231,-102 1225,-108 1219,-108"/>
<text text-anchor="middle" x="1140.5" y="-93" font-family="sans" font-size="10.00">CARLIN</text>
<text text-anchor="middle" x="1140.5" y="-82" font-family="sans" font-size="10.00">sub_dir: results_cutoff_override_3</text>
</g>
<!-- 13&#45;&gt;30 -->
<g id="edge48" class="edge">
<title>13&#45;&gt;30</title>
<path fill="none" stroke="grey" stroke-width="2" d="M1374.39,-215.95C1365.14,-195.81 1347.07,-162.7 1321.5,-144 1305.84,-132.55 1265.92,-120.35 1227.54,-110.55"/>
<polygon fill="grey" stroke="grey" stroke-width="2" points="1228.38,-107.15 1217.83,-108.11 1226.68,-113.94 1228.38,-107.15"/>
</g>
<!-- 14 -->
<g id="node15" class="node">
<title>14</title>
<path fill="none" stroke="#78d856" stroke-width="2" stroke-dasharray="5,2" d="M1616,-180C1616,-180 1539,-180 1539,-180 1533,-180 1527,-174 1527,-168 1527,-168 1527,-156 1527,-156 1527,-150 1533,-144 1539,-144 1539,-144 1616,-144 1616,-144 1622,-144 1628,-150 1628,-156 1628,-156 1628,-168 1628,-168 1628,-174 1622,-180 1616,-180"/>
<text text-anchor="middle" x="1577.5" y="-159.5" font-family="sans" font-size="10.00">fastqc_after_pear</text>
</g>
<!-- 14&#45;&gt;0 -->
<g id="edge4" class="edge">
<title>14&#45;&gt;0</title>
<path fill="none" stroke="grey" stroke-width="2" d="M1551.58,-143.91C1526.28,-125.21 1494.43,-94.84 1515.5,-72 1557.67,-26.3 2001.88,-19.99 2135,-19.13"/>
<polygon fill="grey" stroke="grey" stroke-width="2" points="2135.14,-22.63 2145.12,-19.08 2135.1,-15.63 2135.14,-22.63"/>
</g>
<!-- 14&#45;&gt;11 -->
<g id="edge31" class="edge">
<title>14&#45;&gt;11</title>
<path fill="none" stroke="grey" stroke-width="2" d="M1628.22,-151.19C1643.38,-148.53 1660.07,-145.87 1675.5,-144 1900.05,-116.75 1962.4,-144.8 2190.26,-107.81"/>
<polygon fill="grey" stroke="grey" stroke-width="2" points="2190.89,-111.26 2200.19,-106.18 2189.75,-104.35 2190.89,-111.26"/>
</g>
<!-- 15 -->
<g id="node16" class="node">
<title>15</title>
<path fill="none" stroke="#d85656" stroke-width="2" stroke-dasharray="5,2" d="M1589.5,-252C1589.5,-252 1493.5,-252 1493.5,-252 1487.5,-252 1481.5,-246 1481.5,-240 1481.5,-240 1481.5,-228 1481.5,-228 1481.5,-222 1487.5,-216 1493.5,-216 1493.5,-216 1589.5,-216 1589.5,-216 1595.5,-216 1601.5,-222 1601.5,-228 1601.5,-228 1601.5,-240 1601.5,-240 1601.5,-246 1595.5,-252 1589.5,-252"/>
<text text-anchor="middle" x="1541.5" y="-237" font-family="sans" font-size="10.00">pear</text>
<text text-anchor="middle" x="1541.5" y="-226" font-family="sans" font-size="10.00">sample: LL607&#45;LK_S7</text>
</g>
<!-- 15&#45;&gt;14 -->
<g id="edge40" class="edge">
<title>15&#45;&gt;14</title>
<path fill="none" stroke="grey" stroke-width="2" d="M1550.4,-215.7C1554.5,-207.73 1559.45,-198.1 1563.99,-189.26"/>
<polygon fill="grey" stroke="grey" stroke-width="2" points="1567.24,-190.6 1568.7,-180.1 1561.02,-187.4 1567.24,-190.6"/>
</g>
<!-- 31 -->
<g id="node32" class="node">
<title>31</title>
<path fill="none" stroke="#56d8c9" stroke-width="2" d="M1418,-108C1418,-108 1261,-108 1261,-108 1255,-108 1249,-102 1249,-96 1249,-96 1249,-84 1249,-84 1249,-78 1255,-72 1261,-72 1261,-72 1418,-72 1418,-72 1424,-72 1430,-78 1430,-84 1430,-84 1430,-96 1430,-96 1430,-102 1424,-108 1418,-108"/>
<text text-anchor="middle" x="1339.5" y="-93" font-family="sans" font-size="10.00">CARLIN</text>
<text text-anchor="middle" x="1339.5" y="-82" font-family="sans" font-size="10.00">sub_dir: results_cutoff_override_3</text>
</g>
<!-- 15&#45;&gt;31 -->
<g id="edge49" class="edge">
<title>15&#45;&gt;31</title>
<path fill="none" stroke="grey" stroke-width="2" d="M1481.22,-219.79C1453.92,-211.64 1422.47,-198.99 1398.5,-180 1377.4,-163.28 1361.25,-136.88 1351.23,-117.17"/>
<polygon fill="grey" stroke="grey" stroke-width="2" points="1354.33,-115.56 1346.8,-108.11 1348.04,-118.63 1354.33,-115.56"/>
</g>
<!-- 16 -->
<g id="node17" class="node">
<title>16</title>
<path fill="none" stroke="#78d856" stroke-width="2" stroke-dasharray="5,2" d="M1774,-180C1774,-180 1697,-180 1697,-180 1691,-180 1685,-174 1685,-168 1685,-168 1685,-156 1685,-156 1685,-150 1691,-144 1697,-144 1697,-144 1774,-144 1774,-144 1780,-144 1786,-150 1786,-156 1786,-156 1786,-168 1786,-168 1786,-174 1780,-180 1774,-180"/>
<text text-anchor="middle" x="1735.5" y="-159.5" font-family="sans" font-size="10.00">fastqc_after_pear</text>
</g>
<!-- 16&#45;&gt;0 -->
<g id="edge5" class="edge">
<title>16&#45;&gt;0</title>
<path fill="none" stroke="grey" stroke-width="2" d="M1733.58,-143.79C1732.37,-123.5 1733.86,-90.24 1753.5,-72 1808.41,-21 2042.76,-17.65 2134.99,-18.38"/>
<polygon fill="grey" stroke="grey" stroke-width="2" points="2135.23,-21.88 2145.26,-18.48 2135.3,-14.88 2135.23,-21.88"/>
</g>
<!-- 16&#45;&gt;11 -->
<g id="edge32" class="edge">
<title>16&#45;&gt;11</title>
<path fill="none" stroke="grey" stroke-width="2" d="M1786.15,-156.03C1884.22,-146.25 2097.76,-124.22 2190.27,-107.82"/>
<polygon fill="grey" stroke="grey" stroke-width="2" points="2190.95,-111.26 2200.15,-106 2189.69,-104.37 2190.95,-111.26"/>
</g>
<!-- 17 -->
<g id="node18" class="node">
<title>17</title>
<path fill="none" stroke="#d85656" stroke-width="2" stroke-dasharray="5,2" d="M1747,-252C1747,-252 1636,-252 1636,-252 1630,-252 1624,-246 1624,-240 1624,-240 1624,-228 1624,-228 1624,-222 1630,-216 1636,-216 1636,-216 1747,-216 1747,-216 1753,-216 1759,-222 1759,-228 1759,-228 1759,-240 1759,-240 1759,-246 1753,-252 1747,-252"/>
<text text-anchor="middle" x="1691.5" y="-237" font-family="sans" font-size="10.00">pear</text>
<text text-anchor="middle" x="1691.5" y="-226" font-family="sans" font-size="10.00">sample: LL605&#45;MPP2_S1</text>
</g>
<!-- 17&#45;&gt;16 -->
<g id="edge41" class="edge">
<title>17&#45;&gt;16</title>
<path fill="none" stroke="grey" stroke-width="2" d="M1702.38,-215.7C1707.49,-207.56 1713.7,-197.69 1719.34,-188.7"/>
<polygon fill="grey" stroke="grey" stroke-width="2" points="1722.39,-190.43 1724.75,-180.1 1716.46,-186.71 1722.39,-190.43"/>
</g>
<!-- 32 -->
<g id="node33" class="node">
<title>32</title>
<path fill="none" stroke="#56d8c9" stroke-width="2" d="M1694,-108C1694,-108 1537,-108 1537,-108 1531,-108 1525,-102 1525,-96 1525,-96 1525,-84 1525,-84 1525,-78 1531,-72 1537,-72 1537,-72 1694,-72 1694,-72 1700,-72 1706,-78 1706,-84 1706,-84 1706,-96 1706,-96 1706,-102 1700,-108 1694,-108"/>
<text text-anchor="middle" x="1615.5" y="-93" font-family="sans" font-size="10.00">CARLIN</text>
<text text-anchor="middle" x="1615.5" y="-82" font-family="sans" font-size="10.00">sub_dir: results_cutoff_override_3</text>
</g>
<!-- 17&#45;&gt;32 -->
<g id="edge50" class="edge">
<title>17&#45;&gt;32</title>
<path fill="none" stroke="grey" stroke-width="2" d="M1682.33,-215.87C1669.21,-191.35 1644.95,-146.03 1629.55,-117.26"/>
<polygon fill="grey" stroke="grey" stroke-width="2" points="1632.5,-115.35 1624.7,-108.19 1626.33,-118.66 1632.5,-115.35"/>
</g>
<!-- 18 -->
<g id="node19" class="node">
<title>18</title>
<path fill="none" stroke="#78d856" stroke-width="2" stroke-dasharray="5,2" d="M2011,-180C2011,-180 1934,-180 1934,-180 1928,-180 1922,-174 1922,-168 1922,-168 1922,-156 1922,-156 1922,-150 1928,-144 1934,-144 1934,-144 2011,-144 2011,-144 2017,-144 2023,-150 2023,-156 2023,-156 2023,-168 2023,-168 2023,-174 2017,-180 2011,-180"/>
<text text-anchor="middle" x="1972.5" y="-159.5" font-family="sans" font-size="10.00">fastqc_after_pear</text>
</g>
<!-- 18&#45;&gt;0 -->
<g id="edge6" class="edge">
<title>18&#45;&gt;0</title>
<path fill="none" stroke="grey" stroke-width="2" d="M1971.3,-143.93C1970.87,-124.09 1973.34,-91.57 1991.5,-72 2028.59,-32.04 2094,-21.64 2135.2,-19.25"/>
<polygon fill="grey" stroke="grey" stroke-width="2" points="2135.54,-22.74 2145.38,-18.8 2135.23,-15.75 2135.54,-22.74"/>
</g>
<!-- 18&#45;&gt;11 -->
<g id="edge33" class="edge">
<title>18&#45;&gt;11</title>
<path fill="none" stroke="grey" stroke-width="2" d="M2023.23,-148.99C2067.46,-138.44 2133.31,-122.55 2190.5,-108 2190.6,-107.97 2190.7,-107.95 2190.8,-107.92"/>
<polygon fill="grey" stroke="grey" stroke-width="2" points="2191.59,-111.34 2200.4,-105.46 2189.84,-104.56 2191.59,-111.34"/>
</g>
<!-- 19 -->
<g id="node20" class="node">
<title>19</title>
<path fill="none" stroke="#d85656" stroke-width="2" stroke-dasharray="5,2" d="M1951.5,-252C1951.5,-252 1893.5,-252 1893.5,-252 1887.5,-252 1881.5,-246 1881.5,-240 1881.5,-240 1881.5,-228 1881.5,-228 1881.5,-222 1887.5,-216 1893.5,-216 1893.5,-216 1951.5,-216 1951.5,-216 1957.5,-216 1963.5,-222 1963.5,-228 1963.5,-228 1963.5,-240 1963.5,-240 1963.5,-246 1957.5,-252 1951.5,-252"/>
<text text-anchor="middle" x="1922.5" y="-237" font-family="sans" font-size="10.00">pear</text>
<text text-anchor="middle" x="1922.5" y="-226" font-family="sans" font-size="10.00">sample: 1_S1</text>
</g>
<!-- 19&#45;&gt;18 -->
<g id="edge42" class="edge">
<title>19&#45;&gt;18</title>
<path fill="none" stroke="grey" stroke-width="2" d="M1934.86,-215.7C1940.73,-207.47 1947.87,-197.48 1954.34,-188.42"/>
<polygon fill="grey" stroke="grey" stroke-width="2" points="1957.32,-190.28 1960.28,-180.1 1951.62,-186.21 1957.32,-190.28"/>
</g>
<!-- 33 -->
<g id="node34" class="node">
<title>33</title>
<path fill="none" stroke="#56d8c9" stroke-width="2" d="M1932,-108C1932,-108 1775,-108 1775,-108 1769,-108 1763,-102 1763,-96 1763,-96 1763,-84 1763,-84 1763,-78 1769,-72 1775,-72 1775,-72 1932,-72 1932,-72 1938,-72 1944,-78 1944,-84 1944,-84 1944,-96 1944,-96 1944,-102 1938,-108 1932,-108"/>
<text text-anchor="middle" x="1853.5" y="-93" font-family="sans" font-size="10.00">CARLIN</text>
<text text-anchor="middle" x="1853.5" y="-82" font-family="sans" font-size="10.00">sub_dir: results_cutoff_override_3</text>
</g>
<!-- 19&#45;&gt;33 -->
<g id="edge51" class="edge">
<title>19&#45;&gt;33</title>
<path fill="none" stroke="grey" stroke-width="2" d="M1914.18,-215.87C1902.26,-191.35 1880.24,-146.03 1866.26,-117.26"/>
<polygon fill="grey" stroke="grey" stroke-width="2" points="1869.37,-115.65 1861.85,-108.19 1863.08,-118.71 1869.37,-115.65"/>
</g>
<!-- 20 -->
<g id="node21" class="node">
<title>20</title>
<path fill="none" stroke="#78d856" stroke-width="2" stroke-dasharray="5,2" d="M2293,-180C2293,-180 2216,-180 2216,-180 2210,-180 2204,-174 2204,-168 2204,-168 2204,-156 2204,-156 2204,-150 2210,-144 2216,-144 2216,-144 2293,-144 2293,-144 2299,-144 2305,-150 2305,-156 2305,-156 2305,-168 2305,-168 2305,-174 2299,-180 2293,-180"/>
<text text-anchor="middle" x="2254.5" y="-159.5" font-family="sans" font-size="10.00">fastqc_after_pear</text>
</g>
<!-- 20&#45;&gt;0 -->
<g id="edge7" class="edge">
<title>20&#45;&gt;0</title>
<path fill="none" stroke="grey" stroke-width="2" d="M2284.8,-143.8C2297.38,-134.9 2310.62,-122.77 2317.5,-108 2324.25,-93.49 2326.67,-85.11 2317.5,-72 2293.35,-37.46 2244.17,-25.36 2209.81,-21.16"/>
<polygon fill="grey" stroke="grey" stroke-width="2" points="2209.98,-17.66 2199.67,-20.09 2209.25,-24.62 2209.98,-17.66"/>
</g>
<!-- 20&#45;&gt;11 -->
<g id="edge34" class="edge">
<title>20&#45;&gt;11</title>
<path fill="none" stroke="grey" stroke-width="2" d="M2254.5,-143.7C2254.5,-135.98 2254.5,-126.71 2254.5,-118.11"/>
<polygon fill="grey" stroke="grey" stroke-width="2" points="2258,-118.1 2254.5,-108.1 2251,-118.1 2258,-118.1"/>
</g>
<!-- 21 -->
<g id="node22" class="node">
<title>21</title>
<path fill="none" stroke="#d85656" stroke-width="2" stroke-dasharray="5,2" d="M2228.5,-252C2228.5,-252 2132.5,-252 2132.5,-252 2126.5,-252 2120.5,-246 2120.5,-240 2120.5,-240 2120.5,-228 2120.5,-228 2120.5,-222 2126.5,-216 2132.5,-216 2132.5,-216 2228.5,-216 2228.5,-216 2234.5,-216 2240.5,-222 2240.5,-228 2240.5,-228 2240.5,-240 2240.5,-240 2240.5,-246 2234.5,-252 2228.5,-252"/>
<text text-anchor="middle" x="2180.5" y="-237" font-family="sans" font-size="10.00">pear</text>
<text text-anchor="middle" x="2180.5" y="-226" font-family="sans" font-size="10.00">sample: LL605&#45;LK_S3</text>
</g>
<!-- 21&#45;&gt;20 -->
<g id="edge43" class="edge">
<title>21&#45;&gt;20</title>
<path fill="none" stroke="grey" stroke-width="2" d="M2198.79,-215.7C2207.93,-207.05 2219.14,-196.45 2229.1,-187.03"/>
<polygon fill="grey" stroke="grey" stroke-width="2" points="2231.56,-189.52 2236.42,-180.1 2226.75,-184.43 2231.56,-189.52"/>
</g>
<!-- 34 -->
<g id="node35" class="node">
<title>34</title>
<path fill="none" stroke="#56d8c9" stroke-width="2" d="M2170,-108C2170,-108 2013,-108 2013,-108 2007,-108 2001,-102 2001,-96 2001,-96 2001,-84 2001,-84 2001,-78 2007,-72 2013,-72 2013,-72 2170,-72 2170,-72 2176,-72 2182,-78 2182,-84 2182,-84 2182,-96 2182,-96 2182,-102 2176,-108 2170,-108"/>
<text text-anchor="middle" x="2091.5" y="-93" font-family="sans" font-size="10.00">CARLIN</text>
<text text-anchor="middle" x="2091.5" y="-82" font-family="sans" font-size="10.00">sub_dir: results_cutoff_override_3</text>
</g>
<!-- 21&#45;&gt;34 -->
<g id="edge52" class="edge">
<title>21&#45;&gt;34</title>
<path fill="none" stroke="grey" stroke-width="2" d="M2169.76,-215.87C2154.33,-191.24 2125.74,-145.64 2107.72,-116.88"/>
<polygon fill="grey" stroke="grey" stroke-width="2" points="2110.55,-114.8 2102.27,-108.19 2104.62,-118.52 2110.55,-114.8"/>
</g>
<!-- 22 -->
<g id="node23" class="node">
<title>22</title>
<path fill="none" stroke="#78d856" stroke-width="2" stroke-dasharray="5,2" d="M2413,-180C2413,-180 2336,-180 2336,-180 2330,-180 2324,-174 2324,-168 2324,-168 2324,-156 2324,-156 2324,-150 2330,-144 2336,-144 2336,-144 2413,-144 2413,-144 2419,-144 2425,-150 2425,-156 2425,-156 2425,-168 2425,-168 2425,-174 2419,-180 2413,-180"/>
<text text-anchor="middle" x="2374.5" y="-159.5" font-family="sans" font-size="10.00">fastqc_after_pear</text>
</g>
<!-- 22&#45;&gt;0 -->
<g id="edge8" class="edge">
<title>22&#45;&gt;0</title>
<path fill="none" stroke="grey" stroke-width="2" d="M2371.37,-143.78C2366.86,-123.8 2356.63,-91.14 2335.5,-72 2300.37,-40.18 2245.86,-27.44 2209.68,-22.35"/>
<polygon fill="grey" stroke="grey" stroke-width="2" points="2209.9,-18.85 2199.54,-21.06 2209.01,-25.8 2209.9,-18.85"/>
</g>
<!-- 22&#45;&gt;11 -->
<g id="edge35" class="edge">
<title>22&#45;&gt;11</title>
<path fill="none" stroke="grey" stroke-width="2" d="M2345.14,-143.88C2329.45,-134.72 2309.94,-123.34 2293.05,-113.48"/>
<polygon fill="grey" stroke="grey" stroke-width="2" points="2294.37,-110.21 2283.97,-108.19 2290.84,-116.25 2294.37,-110.21"/>
</g>
<!-- 23 -->
<g id="node24" class="node">
<title>23</title>
<path fill="none" stroke="#d85656" stroke-width="2" stroke-dasharray="5,2" d="M2448,-252C2448,-252 2337,-252 2337,-252 2331,-252 2325,-246 2325,-240 2325,-240 2325,-228 2325,-228 2325,-222 2331,-216 2337,-216 2337,-216 2448,-216 2448,-216 2454,-216 2460,-222 2460,-228 2460,-228 2460,-240 2460,-240 2460,-246 2454,-252 2448,-252"/>
<text text-anchor="middle" x="2392.5" y="-237" font-family="sans" font-size="10.00">pear</text>
<text text-anchor="middle" x="2392.5" y="-226" font-family="sans" font-size="10.00">sample: LL607&#45;MPP2_S5</text>
</g>
<!-- 23&#45;&gt;22 -->
<g id="edge44" class="edge">
<title>23&#45;&gt;22</title>
<path fill="none" stroke="grey" stroke-width="2" d="M2388.05,-215.7C2386.05,-207.9 2383.63,-198.51 2381.4,-189.83"/>
<polygon fill="grey" stroke="grey" stroke-width="2" points="2384.78,-188.92 2378.9,-180.1 2378,-190.66 2384.78,-188.92"/>
</g>
<!-- 35 -->
<g id="node36" class="node">
<title>35</title>
<path fill="none" stroke="#56d8c9" stroke-width="2" d="M2572,-108C2572,-108 2415,-108 2415,-108 2409,-108 2403,-102 2403,-96 2403,-96 2403,-84 2403,-84 2403,-78 2409,-72 2415,-72 2415,-72 2572,-72 2572,-72 2578,-72 2584,-78 2584,-84 2584,-84 2584,-96 2584,-96 2584,-102 2578,-108 2572,-108"/>
<text text-anchor="middle" x="2493.5" y="-93" font-family="sans" font-size="10.00">CARLIN</text>
<text text-anchor="middle" x="2493.5" y="-82" font-family="sans" font-size="10.00">sub_dir: results_cutoff_override_3</text>
</g>
<!-- 23&#45;&gt;35 -->
<g id="edge53" class="edge">
<title>23&#45;&gt;35</title>
<path fill="none" stroke="grey" stroke-width="2" d="M2406.46,-215.55C2414.53,-205.32 2424.78,-192.07 2433.5,-180 2448.56,-159.16 2464.81,-134.94 2476.6,-117.03"/>
<polygon fill="grey" stroke="grey" stroke-width="2" points="2479.77,-118.57 2482.32,-108.29 2473.92,-114.74 2479.77,-118.57"/>
</g>
<!-- 24 -->
<g id="node25" class="node">
<title>24</title>
<path fill="none" stroke="#78d856" stroke-width="2" stroke-dasharray="5,2" d="M2595,-180C2595,-180 2518,-180 2518,-180 2512,-180 2506,-174 2506,-168 2506,-168 2506,-156 2506,-156 2506,-150 2512,-144 2518,-144 2518,-144 2595,-144 2595,-144 2601,-144 2607,-150 2607,-156 2607,-156 2607,-168 2607,-168 2607,-174 2601,-180 2595,-180"/>
<text text-anchor="middle" x="2556.5" y="-159.5" font-family="sans" font-size="10.00">fastqc_after_pear</text>
</g>
<!-- 24&#45;&gt;0 -->
<g id="edge9" class="edge">
<title>24&#45;&gt;0</title>
<path fill="none" stroke="grey" stroke-width="2" d="M2573.2,-143.78C2589.98,-124.39 2610.91,-92.88 2592.5,-72 2567.32,-43.44 2307.76,-26.39 2209.72,-20.93"/>
<polygon fill="grey" stroke="grey" stroke-width="2" points="2209.84,-17.43 2199.67,-20.38 2209.46,-24.42 2209.84,-17.43"/>
</g>
<!-- 24&#45;&gt;11 -->
<g id="edge36" class="edge">
<title>24&#45;&gt;11</title>
<path fill="none" stroke="grey" stroke-width="2" d="M2505.95,-149.28C2454.39,-137.33 2374.23,-118.75 2318.33,-105.79"/>
<polygon fill="grey" stroke="grey" stroke-width="2" points="2319.06,-102.37 2308.53,-103.52 2317.48,-109.19 2319.06,-102.37"/>
</g>
<!-- 25 -->
<g id="node26" class="node">
<title>25</title>
<path fill="none" stroke="#d85656" stroke-width="2" stroke-dasharray="5,2" d="M2664.5,-252C2664.5,-252 2560.5,-252 2560.5,-252 2554.5,-252 2548.5,-246 2548.5,-240 2548.5,-240 2548.5,-228 2548.5,-228 2548.5,-222 2554.5,-216 2560.5,-216 2560.5,-216 2664.5,-216 2664.5,-216 2670.5,-216 2676.5,-222 2676.5,-228 2676.5,-228 2676.5,-240 2676.5,-240 2676.5,-246 2670.5,-252 2664.5,-252"/>
<text text-anchor="middle" x="2612.5" y="-237" font-family="sans" font-size="10.00">pear</text>
<text text-anchor="middle" x="2612.5" y="-226" font-family="sans" font-size="10.00">sample: LL607&#45;HSC_S8</text>
</g>
<!-- 25&#45;&gt;24 -->
<g id="edge45" class="edge">
<title>25&#45;&gt;24</title>
<path fill="none" stroke="grey" stroke-width="2" d="M2598.66,-215.7C2592.01,-207.39 2583.92,-197.28 2576.61,-188.14"/>
<polygon fill="grey" stroke="grey" stroke-width="2" points="2579.16,-185.73 2570.18,-180.1 2573.7,-190.1 2579.16,-185.73"/>
</g>
<!-- 36 -->
<g id="node37" class="node">
<title>36</title>
<path fill="none" stroke="#56d8c9" stroke-width="2" d="M2848,-108C2848,-108 2691,-108 2691,-108 2685,-108 2679,-102 2679,-96 2679,-96 2679,-84 2679,-84 2679,-78 2685,-72 2691,-72 2691,-72 2848,-72 2848,-72 2854,-72 2860,-78 2860,-84 2860,-84 2860,-96 2860,-96 2860,-102 2854,-108 2848,-108"/>
<text text-anchor="middle" x="2769.5" y="-93" font-family="sans" font-size="10.00">CARLIN</text>
<text text-anchor="middle" x="2769.5" y="-82" font-family="sans" font-size="10.00">sub_dir: results_cutoff_override_3</text>
</g>
<!-- 25&#45;&gt;36 -->
<g id="edge54" class="edge">
<title>25&#45;&gt;36</title>
<path fill="none" stroke="grey" stroke-width="2" d="M2676.59,-215.96C2697.22,-207.86 2718.78,-196.28 2734.5,-180 2750.92,-162.99 2759.9,-137.36 2764.64,-117.97"/>
<polygon fill="grey" stroke="grey" stroke-width="2" points="2768.06,-118.73 2766.8,-108.21 2761.23,-117.21 2768.06,-118.73"/>
</g>
<!-- 26 -->
<g id="node27" class="node">
<title>26</title>
<path fill="none" stroke="#78d856" stroke-width="2" stroke-dasharray="5,2" d="M2714,-180C2714,-180 2637,-180 2637,-180 2631,-180 2625,-174 2625,-168 2625,-168 2625,-156 2625,-156 2625,-150 2631,-144 2637,-144 2637,-144 2714,-144 2714,-144 2720,-144 2726,-150 2726,-156 2726,-156 2726,-168 2726,-168 2726,-174 2720,-180 2714,-180"/>
<text text-anchor="middle" x="2675.5" y="-159.5" font-family="sans" font-size="10.00">fastqc_after_pear</text>
</g>
<!-- 26&#45;&gt;0 -->
<g id="edge10" class="edge">
<title>26&#45;&gt;0</title>
<path fill="none" stroke="grey" stroke-width="2" d="M2668.27,-143.92C2658.47,-123.1 2638.89,-88.64 2610.5,-72 2542.82,-32.32 2302.98,-22.21 2209.86,-19.75"/>
<polygon fill="grey" stroke="grey" stroke-width="2" points="2209.85,-16.25 2199.76,-19.5 2209.67,-23.25 2209.85,-16.25"/>
</g>
<!-- 26&#45;&gt;11 -->
<g id="edge37" class="edge">
<title>26&#45;&gt;11</title>
<path fill="none" stroke="grey" stroke-width="2" d="M2624.88,-146.16C2621.71,-145.38 2618.57,-144.66 2615.5,-144 2560.31,-132.18 2407.04,-111.14 2318.98,-99.44"/>
<polygon fill="grey" stroke="grey" stroke-width="2" points="2319.2,-95.94 2308.83,-98.09 2318.28,-102.88 2319.2,-95.94"/>
</g>
<!-- 27 -->
<g id="node28" class="node">
<title>27</title>
<path fill="none" stroke="#d85656" stroke-width="2" stroke-dasharray="5,2" d="M2931.5,-252C2931.5,-252 2827.5,-252 2827.5,-252 2821.5,-252 2815.5,-246 2815.5,-240 2815.5,-240 2815.5,-228 2815.5,-228 2815.5,-222 2821.5,-216 2827.5,-216 2827.5,-216 2931.5,-216 2931.5,-216 2937.5,-216 2943.5,-222 2943.5,-228 2943.5,-228 2943.5,-240 2943.5,-240 2943.5,-246 2937.5,-252 2931.5,-252"/>
<text text-anchor="middle" x="2879.5" y="-237" font-family="sans" font-size="10.00">pear</text>
<text text-anchor="middle" x="2879.5" y="-226" font-family="sans" font-size="10.00">sample: LL605&#45;HSC_S4</text>
</g>
<!-- 27&#45;&gt;26 -->
<g id="edge46" class="edge">
<title>27&#45;&gt;26</title>
<path fill="none" stroke="grey" stroke-width="2" d="M2829.86,-215.97C2801.23,-206.14 2765.05,-193.73 2734.92,-183.39"/>
<polygon fill="grey" stroke="grey" stroke-width="2" points="2735.96,-180.05 2725.37,-180.11 2733.69,-186.67 2735.96,-180.05"/>
</g>
<!-- 37 -->
<g id="node38" class="node">
<title>37</title>
<path fill="none" stroke="#56d8c9" stroke-width="2" d="M3047,-108C3047,-108 2890,-108 2890,-108 2884,-108 2878,-102 2878,-96 2878,-96 2878,-84 2878,-84 2878,-78 2884,-72 2890,-72 2890,-72 3047,-72 3047,-72 3053,-72 3059,-78 3059,-84 3059,-84 3059,-96 3059,-96 3059,-102 3053,-108 3047,-108"/>
<text text-anchor="middle" x="2968.5" y="-93" font-family="sans" font-size="10.00">CARLIN</text>
<text text-anchor="middle" x="2968.5" y="-82" font-family="sans" font-size="10.00">sub_dir: results_cutoff_override_3</text>
</g>
<!-- 27&#45;&gt;37 -->
<g id="edge55" class="edge">
<title>27&#45;&gt;37</title>
<path fill="none" stroke="grey" stroke-width="2" d="M2890.24,-215.87C2905.67,-191.24 2934.26,-145.64 2952.28,-116.88"/>
<polygon fill="grey" stroke="grey" stroke-width="2" points="2955.38,-118.52 2957.73,-108.19 2949.45,-114.8 2955.38,-118.52"/>
</g>
<!-- 28 -->
<g id="node29" class="node">
<title>28</title>
<path fill="none" stroke="#78d856" stroke-width="2" stroke-dasharray="5,2" d="M3126,-180C3126,-180 3049,-180 3049,-180 3043,-180 3037,-174 3037,-168 3037,-168 3037,-156 3037,-156 3037,-150 3043,-144 3049,-144 3049,-144 3126,-144 3126,-144 3132,-144 3138,-150 3138,-156 3138,-156 3138,-168 3138,-168 3138,-174 3132,-180 3126,-180"/>
<text text-anchor="middle" x="3087.5" y="-159.5" font-family="sans" font-size="10.00">fastqc_after_pear</text>
</g>
<!-- 28&#45;&gt;0 -->
<g id="edge11" class="edge">
<title>28&#45;&gt;0</title>
<path fill="none" stroke="grey" stroke-width="2" d="M3089.17,-143.88C3090.13,-123.36 3088.13,-89.54 3067.5,-72 3001.41,-15.83 2372.01,-17.29 2210.25,-18.61"/>
<polygon fill="grey" stroke="grey" stroke-width="2" points="2209.82,-15.11 2199.85,-18.7 2209.88,-22.11 2209.82,-15.11"/>
</g>
<!-- 28&#45;&gt;11 -->
<g id="edge38" class="edge">
<title>28&#45;&gt;11</title>
<path fill="none" stroke="grey" stroke-width="2" d="M3036.93,-157.93C2922.3,-150.79 2633.99,-131.88 2393.5,-108 2369.05,-105.57 2342.25,-102.41 2318.76,-99.48"/>
<polygon fill="grey" stroke="grey" stroke-width="2" points="2318.92,-95.97 2308.57,-98.19 2318.05,-102.92 2318.92,-95.97"/>
</g>
<!-- 29 -->
<g id="node30" class="node">
<title>29</title>
<path fill="none" stroke="#d85656" stroke-width="2" stroke-dasharray="5,2" d="M3207,-252C3207,-252 3086,-252 3086,-252 3080,-252 3074,-246 3074,-240 3074,-240 3074,-228 3074,-228 3074,-222 3080,-216 3086,-216 3086,-216 3207,-216 3207,-216 3213,-216 3219,-222 3219,-228 3219,-228 3219,-240 3219,-240 3219,-246 3213,-252 3207,-252"/>
<text text-anchor="middle" x="3146.5" y="-237" font-family="sans" font-size="10.00">pear</text>
<text text-anchor="middle" x="3146.5" y="-226" font-family="sans" font-size="10.00">sample: LL605&#45;MPP3&#45;4_S2</text>
</g>
<!-- 29&#45;&gt;28 -->
<g id="edge47" class="edge">
<title>29&#45;&gt;28</title>
<path fill="none" stroke="grey" stroke-width="2" d="M3131.92,-215.7C3124.84,-207.3 3116.22,-197.07 3108.45,-187.86"/>
<polygon fill="grey" stroke="grey" stroke-width="2" points="3111.04,-185.49 3101.92,-180.1 3105.69,-190.01 3111.04,-185.49"/>
</g>
<!-- 38 -->
<g id="node39" class="node">
<title>38</title>
<path fill="none" stroke="#56d8c9" stroke-width="2" d="M3285,-108C3285,-108 3128,-108 3128,-108 3122,-108 3116,-102 3116,-96 3116,-96 3116,-84 3116,-84 3116,-78 3122,-72 3128,-72 3128,-72 3285,-72 3285,-72 3291,-72 3297,-78 3297,-84 3297,-84 3297,-96 3297,-96 3297,-102 3291,-108 3285,-108"/>
<text text-anchor="middle" x="3206.5" y="-93" font-family="sans" font-size="10.00">CARLIN</text>
<text text-anchor="middle" x="3206.5" y="-82" font-family="sans" font-size="10.00">sub_dir: results_cutoff_override_3</text>
</g>
<!-- 29&#45;&gt;38 -->
<g id="edge56" class="edge">
<title>29&#45;&gt;38</title>
<path fill="none" stroke="grey" stroke-width="2" d="M3153.74,-215.87C3164.05,-191.46 3183.08,-146.43 3195.25,-117.64"/>
<polygon fill="grey" stroke="grey" stroke-width="2" points="3198.57,-118.76 3199.24,-108.19 3192.12,-116.04 3198.57,-118.76"/>
</g>
<!-- 30&#45;&gt;0 -->
<g id="edge12" class="edge">
<title>30&#45;&gt;0</title>
<path fill="none" stroke="grey" stroke-width="2" d="M1231.08,-73.02C1233.92,-72.66 1236.73,-72.32 1239.5,-72 1586.05,-32.53 2008.53,-21.98 2135.01,-19.61"/>
<polygon fill="grey" stroke="grey" stroke-width="2" points="2135.37,-23.1 2145.31,-19.42 2135.25,-16.1 2135.37,-23.1"/>
</g>
<!-- 31&#45;&gt;0 -->
<g id="edge13" class="edge">
<title>31&#45;&gt;0</title>
<path fill="none" stroke="grey" stroke-width="2" d="M1430.21,-73.8C1435.04,-73.16 1439.82,-72.55 1444.5,-72 1708.21,-41.11 2027.91,-25.28 2135.3,-20.55"/>
<polygon fill="grey" stroke="grey" stroke-width="2" points="2135.48,-24.05 2145.32,-20.12 2135.17,-17.05 2135.48,-24.05"/>
</g>
<!-- 32&#45;&gt;0 -->
<g id="edge14" class="edge">
<title>32&#45;&gt;0</title>
<path fill="none" stroke="grey" stroke-width="2" d="M1706.24,-74.05C1711.06,-73.34 1715.84,-72.65 1720.5,-72 1874.08,-50.57 2057.85,-30.85 2135.24,-22.81"/>
<polygon fill="grey" stroke="grey" stroke-width="2" points="2135.86,-26.27 2145.45,-21.75 2135.14,-19.3 2135.86,-26.27"/>
</g>
<!-- 33&#45;&gt;0 -->
<g id="edge15" class="edge">
<title>33&#45;&gt;0</title>
<path fill="none" stroke="grey" stroke-width="2" d="M1931.13,-71.97C1995.87,-57.76 2085.29,-38.14 2135.12,-27.2"/>
<polygon fill="grey" stroke="grey" stroke-width="2" points="2136.12,-30.57 2145.13,-25.01 2134.62,-23.73 2136.12,-30.57"/>
</g>
<!-- 34&#45;&gt;0 -->
<g id="edge16" class="edge">
<title>34&#45;&gt;0</title>
<path fill="none" stroke="grey" stroke-width="2" d="M2111.52,-71.7C2121.63,-62.97 2134.04,-52.24 2145.02,-42.75"/>
<polygon fill="grey" stroke="grey" stroke-width="2" points="2147.43,-45.29 2152.71,-36.1 2142.85,-39.99 2147.43,-45.29"/>
</g>
<!-- 35&#45;&gt;0 -->
<g id="edge17" class="edge">
<title>35&#45;&gt;0</title>
<path fill="none" stroke="grey" stroke-width="2" d="M2415.39,-71.97C2350.07,-57.72 2259.77,-38.03 2209.71,-27.11"/>
<polygon fill="grey" stroke="grey" stroke-width="2" points="2210.18,-23.63 2199.66,-24.92 2208.69,-30.47 2210.18,-23.63"/>
</g>
<!-- 36&#45;&gt;0 -->
<g id="edge18" class="edge">
<title>36&#45;&gt;0</title>
<path fill="none" stroke="grey" stroke-width="2" d="M2678.77,-74C2673.95,-73.3 2669.17,-72.63 2664.5,-72 2495.25,-49.2 2292.19,-29.85 2209.88,-22.34"/>
<polygon fill="grey" stroke="grey" stroke-width="2" points="2210.04,-18.84 2199.76,-21.42 2209.41,-25.81 2210.04,-18.84"/>
</g>
<!-- 37&#45;&gt;0 -->
<g id="edge19" class="edge">
<title>37&#45;&gt;0</title>
<path fill="none" stroke="grey" stroke-width="2" d="M2877.8,-73.21C2874.67,-72.78 2871.56,-72.38 2868.5,-72 2617.9,-41.22 2314.21,-25.44 2209.82,-20.63"/>
<polygon fill="grey" stroke="grey" stroke-width="2" points="2209.93,-17.13 2199.79,-20.17 2209.62,-24.12 2209.93,-17.13"/>
</g>
<!-- 38&#45;&gt;0 -->
<g id="edge20" class="edge">
<title>38&#45;&gt;0</title>
<path fill="none" stroke="grey" stroke-width="2" d="M3115.8,-73.72C3110.97,-73.09 3106.18,-72.51 3101.5,-72 2756.25,-34.31 2335.71,-22.54 2209.81,-19.74"/>
<polygon fill="grey" stroke="grey" stroke-width="2" points="2209.64,-16.24 2199.57,-19.52 2209.49,-23.24 2209.64,-16.24"/>
</g>
</g>
</svg>
