<?xml version="1.0" encoding="UTF-8" standalone="no"?>
<!DOCTYPE svg PUBLIC "-//W3C//DTD SVG 1.1//EN"
 "http://www.w3.org/Graphics/SVG/1.1/DTD/svg11.dtd">
<!-- Generated by graphviz version 2.49.1 (20211004.0028)
 -->
<!-- Title: snakemake_dag Pages: 1 -->
<svg width="125pt" height="188pt"
 viewBox="0.00 0.00 125.00 188.00" xmlns="http://www.w3.org/2000/svg" xmlns:xlink="http://www.w3.org/1999/xlink">
<g id="graph0" class="graph" transform="scale(1 1) rotate(0) translate(4 184)">
<title>snakemake_dag</title>
<polygon fill="white" stroke="transparent" points="-4,4 -4,-184 121,-184 121,4 -4,4"/>
<!-- 0 -->
<g id="node1" class="node">
<title>0</title>
<path fill="none" stroke="#56d8a9" stroke-width="2" d="M73.5,-36C73.5,-36 43.5,-36 43.5,-36 37.5,-36 31.5,-30 31.5,-24 31.5,-24 31.5,-12 31.5,-12 31.5,-6 37.5,0 43.5,0 43.5,0 73.5,0 73.5,0 79.5,0 85.5,-6 85.5,-12 85.5,-12 85.5,-24 85.5,-24 85.5,-30 79.5,-36 73.5,-36"/>
<text text-anchor="middle" x="58.5" y="-15.5" font-family="sans" font-size="10.00">all</text>
</g>
<!-- 1 -->
<g id="node2" class="node">
<title>1</title>
<path fill="none" stroke="#d85656" stroke-width="2" d="M105,-108C105,-108 12,-108 12,-108 6,-108 0,-102 0,-96 0,-96 0,-84 0,-84 0,-78 6,-72 12,-72 12,-72 105,-72 105,-72 111,-72 117,-78 117,-84 117,-84 117,-96 117,-96 117,-102 111,-108 105,-108"/>
<text text-anchor="middle" x="58.5" y="-87.5" font-family="sans" font-size="10.00">multiqc_before_pear</text>
</g>
<!-- 1&#45;&gt;0 -->
<g id="edge1" class="edge">
<title>1&#45;&gt;0</title>
<path fill="none" stroke="grey" stroke-width="2" d="M58.5,-71.7C58.5,-63.98 58.5,-54.71 58.5,-46.11"/>
<polygon fill="grey" stroke="grey" stroke-width="2" points="62,-46.1 58.5,-36.1 55,-46.1 62,-46.1"/>
</g>
<!-- 2 -->
<g id="node3" class="node">
<title>2</title>
<path fill="none" stroke="#afd856" stroke-width="2" stroke-dasharray="5,2" d="M101.5,-180C101.5,-180 15.5,-180 15.5,-180 9.5,-180 3.5,-174 3.5,-168 3.5,-168 3.5,-156 3.5,-156 3.5,-150 9.5,-144 15.5,-144 15.5,-144 101.5,-144 101.5,-144 107.5,-144 113.5,-150 113.5,-156 113.5,-156 113.5,-168 113.5,-168 113.5,-174 107.5,-180 101.5,-180"/>
<text text-anchor="middle" x="58.5" y="-159.5" font-family="sans" font-size="10.00">fastqc_before_pear</text>
</g>
<!-- 2&#45;&gt;1 -->
<g id="edge2" class="edge">
<title>2&#45;&gt;1</title>
<path fill="none" stroke="grey" stroke-width="2" d="M58.5,-143.7C58.5,-135.98 58.5,-126.71 58.5,-118.11"/>
<polygon fill="grey" stroke="grey" stroke-width="2" points="62,-118.1 58.5,-108.1 55,-118.1 62,-118.1"/>
</g>
</g>
</svg>
